<svg xmlns="http://www.w3.org/2000/svg" width="20" height="14.094" viewBox="0 0 20 14.094"><defs><style>.cls-1{fill:#fff;fill-rule:evenodd}</style></defs><path id="youtube.svg" class="cls-1" d="M357.02 643.6a2.513 2.513 0 0 0-1.769-1.781c-1.561-.421-7.819-.421-7.819-.421s-6.259 0-7.819.421a2.514 2.514 0 0 0-1.77 1.781 28.323 28.323 0 0 0 0 9.7 2.514 2.514 0 0 0 1.77 1.781c1.56.421 7.819.421 7.819.421s6.258 0 7.819-.421a2.513 2.513 0 0 0 1.769-1.781 28.256 28.256 0 0 0 0-9.7zm-11.635 7.824v-5.952l5.231 2.976z" transform="translate(-337.438 -641.406)"/></svg>