<svg xmlns="http://www.w3.org/2000/svg" viewBox="0 0 25 17.61"><defs><style>.cls-1{fill:#282828}.cls-2{fill:#fff}</style></defs><title>Youtube</title><g id="レイヤー_2" data-name="レイヤー 2"><g id="レイヤー_1-2" data-name="レイヤー 1"><g id="Youtube"><path class="cls-1" d="M24.48 2.75A3.15 3.15 0 0 0 22.27.53C20.32 0 12.5 0 12.5 0S4.68 0 2.73.53A3.15 3.15 0 0 0 .52 2.75 33.12 33.12 0 0 0 0 8.81a33 33 0 0 0 .52 6 3.15 3.15 0 0 0 2.21 2.23c1.95.52 9.77.52 9.77.52s7.82 0 9.77-.52a3.15 3.15 0 0 0 2.21-2.23 33 33 0 0 0 .52-6 33.12 33.12 0 0 0-.52-6.06z"/><path class="cls-2" d="M9.94 12.52l6.54-3.71-6.54-3.72v7.43z"/></g></g></g></svg>