<svg xmlns="http://www.w3.org/2000/svg" width="36" height="36" viewBox="0 0 36 36"><path data-name="パス 70" d="M36 18A18 18 0 1 1 18 0a18 18 0 0 1 18 18zm-6.027-1.081c0-5.357-5.371-9.716-11.973-9.716S6.027 11.562 6.027 16.919c0 4.8 4.26 8.826 10.013 9.586.39.084.921.257 1.055.591a2.456 2.456 0 0 1 .039 1.082l-.171 1.025c-.052.3-.241 1.184 1.037.645a38.646 38.646 0 0 0 9.407-6.951 8.642 8.642 0 0 0 2.567-5.978M15.568 14.33h-.84a.234.234 0 0 0-.233.233v5.217a.233.233 0 0 0 .233.233h.84a.233.233 0 0 0 .234-.233v-5.217a.234.234 0 0 0-.234-.233m5.781 0h-.84a.233.233 0 0 0-.233.233v3.1l-2.391-3.228c0-.008-.012-.016-.018-.024l-.014-.015-.012-.01-.006-.005-.013-.008h-.007l-.012-.007h-.007l-.014-.005h-.007l-.014-.005h-.904a.234.234 0 0 0-.233.233v5.217a.233.233 0 0 0 .233.233h.84a.232.232 0 0 0 .233-.233v-3.1l2.394 3.232a.217.217 0 0 0 .059.058l.014.008h.007l.011.005.011.005h.007l.016.005a.235.235 0 0 0 .06.008h.84a.232.232 0 0 0 .233-.233v-5.217a.233.233 0 0 0-.233-.233m-7.8 4.376h-2.282v-4.143a.233.233 0 0 0-.233-.233h-.84a.233.233 0 0 0-.233.233v5.217a.234.234 0 0 0 .065.161.232.232 0 0 0 .161.065h3.355a.233.233 0 0 0 .233-.233v-.84a.233.233 0 0 0-.233-.234m12.443-3.069a.233.233 0 0 0 .232-.234v-.839a.233.233 0 0 0-.232-.234H22.63a.228.228 0 0 0-.161.066v.005a.23.23 0 0 0-.065.16v5.216a.228.228 0 0 0 .066.161.233.233 0 0 0 .161.065h3.356a.233.233 0 0 0 .232-.233v-.84a.233.233 0 0 0-.232-.234H23.7v-.881h2.282a.233.233 0 0 0 .232-.234v-.839a.233.233 0 0 0-.232-.234H23.7v-.881z" fill="#fff"/></svg>