<svg xmlns="http://www.w3.org/2000/svg" width="30" height="30" viewBox="0 0 30 30"><g data-name="グループ 41" transform="translate(-275 -681)"><circle data-name="楕円形 3" cx="15" cy="15" r="15" transform="translate(275 681)"/><path data-name="パス 676" d="M299.977 695.1c0-4.464-4.475-8.1-9.977-8.1s-9.977 3.632-9.977 8.1c0 4 3.549 7.355 8.344 7.989.325.07.767.214.879.492a2.051 2.051 0 0 1 .032.9l-.142.854c-.044.252-.2.986.864.538a32.227 32.227 0 0 0 7.839-5.793 7.2 7.2 0 0 0 2.138-4.982" fill="#fff"/><g data-name="グループ 40"><path data-name="パス 677" d="M287.973 692.942h-.7a.2.2 0 0 0-.2.194v4.347a.2.2 0 0 0 .2.194h.7a.194.194 0 0 0 .194-.194v-4.347a.194.194 0 0 0-.194-.194"/><path data-name="パス 678" d="M292.79 692.942h-.7a.194.194 0 0 0-.194.194v2.583l-1.993-2.691-.015-.019-.012-.012-.011-.009h-.005l-.01-.007h-.006l-.01-.006h-.006l-.011-.005h-.771a.194.194 0 0 0-.194.194v4.347a.194.194 0 0 0 .194.194h.7a.194.194 0 0 0 .194-.194V694.9l1.995 2.694a.186.186 0 0 0 .049.048l.012.007h.043a.209.209 0 0 0 .05.006h.7a.194.194 0 0 0 .194-.194v-4.347a.194.194 0 0 0-.194-.194"/><path data-name="パス 679" d="M286.286 696.589h-1.9v-3.453a.194.194 0 0 0-.194-.194h-.7a.194.194 0 0 0-.194.194v4.347a.189.189 0 0 0 .054.134.189.189 0 0 0 .134.054h2.8a.194.194 0 0 0 .194-.194v-.7a.194.194 0 0 0-.194-.194"/><path data-name="パス 680" d="M296.655 694.03a.194.194 0 0 0 .194-.194v-.7a.194.194 0 0 0-.194-.194h-2.8a.192.192 0 0 0-.135.055.194.194 0 0 0-.053.134v4.347a.189.189 0 0 0 .054.134.191.191 0 0 0 .135.054h2.8a.194.194 0 0 0 .194-.194v-.7a.194.194 0 0 0-.194-.194h-1.9v-.735h1.9a.194.194 0 0 0 .194-.2v-.7a.194.194 0 0 0-.194-.2h-1.9v-.735z"/></g></g></svg>