<svg xmlns="http://www.w3.org/2000/svg" viewBox="0 0 25 25"><defs><style>.cls-1{fill:#fff}</style></defs><title>Fcebook</title><g id="レイヤー_2" data-name="レイヤー 2"><g id="レイヤー_1-2" data-name="レイヤー 1"><g id="Fcebook"><path d="M25 12.5a12.5 12.5 0 1 0-14.45 12.35v-8.74H7.37V12.5h3.18V9.75c0-3.14 1.86-4.87 4.72-4.87a18.78 18.78 0 0 1 2.8.25V8.2h-1.58a1.82 1.82 0 0 0-2 2v2.3h3.47l-.55 3.61h-2.96v8.74A12.51 12.51 0 0 0 25 12.5z"/><path class="cls-1" d="M17.37 16.11l.55-3.61h-3.47v-2.34a1.82 1.82 0 0 1 2-2h1.58V5.13a18.78 18.78 0 0 0-2.8-.25c-2.86 0-4.72 1.73-4.72 4.87v2.75H7.37v3.61h3.18v8.74a12.75 12.75 0 0 0 3.9 0v-8.74z"/></g></g></g></svg>