<svg xmlns="http://www.w3.org/2000/svg" width="19.969" height="19.969" viewBox="0 0 19.969 19.969"><defs><style>.cls-1{fill:#fff;fill-rule:evenodd}</style></defs><path id="instagram.svg" class="cls-1" d="M306.2 640.457c2.667 0 2.983.01 4.036.058a5.537 5.537 0 0 1 1.855.344 3.306 3.306 0 0 1 1.895 1.9 5.509 5.509 0 0 1 .344 1.854c.048 1.054.059 1.37.059 4.037s-.011 2.982-.059 4.036a5.5 5.5 0 0 1-.344 1.854 3.306 3.306 0 0 1-1.895 1.9 5.537 5.537 0 0 1-1.855.344c-1.053.048-1.369.058-4.036.058s-2.983-.01-4.036-.058a5.537 5.537 0 0 1-1.855-.344 3.306 3.306 0 0 1-1.9-1.9 5.5 5.5 0 0 1-.344-1.854c-.048-1.054-.059-1.369-.059-4.036s.011-2.983.059-4.037a5.509 5.509 0 0 1 .344-1.854 3.306 3.306 0 0 1 1.9-1.9 5.537 5.537 0 0 1 1.855-.344c1.053-.048 1.369-.058 4.036-.058m0-1.8c-2.713 0-3.053.012-4.118.06a7.347 7.347 0 0 0-2.425.465 5.107 5.107 0 0 0-2.921 2.921 7.312 7.312 0 0 0-.464 2.424c-.049 1.066-.06 1.406-.06 4.119s.011 3.052.06 4.118a7.312 7.312 0 0 0 .464 2.424 5.107 5.107 0 0 0 2.921 2.921 7.347 7.347 0 0 0 2.425.465c1.065.048 1.405.06 4.118.06s3.053-.012 4.118-.06a7.347 7.347 0 0 0 2.425-.465 5.107 5.107 0 0 0 2.921-2.921 7.312 7.312 0 0 0 .464-2.424c.049-1.066.06-1.406.06-4.118s-.011-3.053-.06-4.119a7.312 7.312 0 0 0-.464-2.424 5.107 5.107 0 0 0-2.921-2.921 7.347 7.347 0 0 0-2.425-.465c-1.065-.048-1.4-.06-4.118-.06zm0 4.86a5.129 5.129 0 1 0 5.129 5.129 5.129 5.129 0 0 0-5.129-5.129zm0 8.458a3.33 3.33 0 1 1 3.329-3.329 3.329 3.329 0 0 1-3.329 3.329zm6.53-8.661a1.2 1.2 0 1 1-1.2-1.2 1.2 1.2 0 0 1 1.2 1.2z" transform="translate(-296.219 -638.656)"/></svg>