<svg xmlns="http://www.w3.org/2000/svg" viewBox="0 0 25 25"><defs><style>.cls-1{fill:#fff}</style></defs><title>Twitter</title><g id="レイヤー_2" data-name="レイヤー 2"><g id="レイヤー_1-2" data-name="レイヤー 1"><g id="Twitter"><circle cx="12.5" cy="12.5" r="12.5" id="Dark_Blue" data-name="Dark Blue"/><path class="cls-1" d="M10.21 19.09a8.51 8.51 0 0 0 8.58-8.57v-.39a6.06 6.06 0 0 0 1.51-1.56 5.91 5.91 0 0 1-1.74.43 3 3 0 0 0 1.32-1.66 6.21 6.21 0 0 1-1.88.77 3 3 0 0 0-5.21 2.06 2.61 2.61 0 0 0 .08.69 8.6 8.6 0 0 1-6.25-3.15 3.06 3.06 0 0 0-.4 1.51 3 3 0 0 0 1.34 2.51 3 3 0 0 1-1.36-.38 3 3 0 0 0 2.42 2.95 3 3 0 0 1-.8.11 2.6 2.6 0 0 1-.56-.06 3 3 0 0 0 2.81 2.1 6.1 6.1 0 0 1-3.75 1.29 5.52 5.52 0 0 1-.71-.05 8.4 8.4 0 0 0 4.6 1.36" id="Logo_FIXED" data-name="Logo — FIXED"/></g></g></g></svg>