<svg xmlns="http://www.w3.org/2000/svg" width="20.124" height="16.344" viewBox="0 0 20.124 16.344"><defs><style>.cls-1{fill:#fff;fill-rule:evenodd}</style></defs><path id="twitter.svg" class="cls-1" d="M260.77 656.4a11.657 11.657 0 0 0 11.737-11.737c0-.179 0-.356-.012-.533a8.41 8.41 0 0 0 2.058-2.13 8.222 8.222 0 0 1-2.369.649 4.142 4.142 0 0 0 1.816-2.284 8.279 8.279 0 0 1-2.619 1 4.129 4.129 0 0 0-7.03 3.762 11.712 11.712 0 0 1-8.5-4.31 4.127 4.127 0 0 0 1.277 5.507 4.1 4.1 0 0 1-1.869-.516v.052a4.126 4.126 0 0 0 3.31 4.044 4.13 4.13 0 0 1-1.863.071 4.128 4.128 0 0 0 3.853 2.865 8.272 8.272 0 0 1-5.123 1.766 8.415 8.415 0 0 1-.984-.057 11.678 11.678 0 0 0 6.323 1.853" transform="translate(-254.438 -640.062)"/></svg>