<svg width="364" height="54" id="レイヤー_1" data-name="レイヤー 1" xmlns="http://www.w3.org/2000/svg" viewBox="0 0 360 54" preserveAspectRatio="none"><defs><style>.cls-1,.cls-4{fill:none}.cls-2{clip-path:url(#clip-path)}.cls-3{fill:#fff}.cls-4{stroke:#999;stroke-miterlimit:10;stroke-width:3px}.cls-5{fill:#ffcc2d}.cls-6{fill:#231815}</style><clipPath id="clip-path"><path class="cls-1" d="M0 0h360v54H0z"/></clipPath></defs><title>img_banner_deptname_manga</title><g class="cls-2"><path class="cls-3" d="M-8.5-8.5h377.01v71.01H-8.5z"/><path class="cls-4" d="M335.25 16.9l7.85 7.85-7.85 7.86"/><g id="芸術学部"><path class="cls-5" d="M370.01 57h-380l-.02-6.99h380l.02 6.99z"/><path class="cls-6" d="M108.1 26.87h-8.82v-.35l4.94-3.24v-3H91.09v2.46h9l-3.75 2.46v1.69h-9.13v2.47h9.16V34h-2.51v2.91h3.8a1.74 1.74 0 0 0 .55-.1 1.54 1.54 0 0 0 1-1.13 2.07 2.07 0 0 0 .07-.49v-5.85h8.82z"/><path class="cls-6" d="M90.31 18.52h14.7v3.38h2.86v-6.04h-2.83V13h-2.86v2.91h-3.09V13h-2.86v2.91h-3.04V13h-2.86v2.86h-2.88v6.04h2.86v-3.38zm43.58 9.08h-1.46V13h-2.71v14.6h-7.81v2.72h7.81v6.56h2.71v-6.56h1.46V27.6zm-11.81-.6a19.36 19.36 0 0 1-2.45-4.75h2v-2.67H119v-3.37a17.23 17.23 0 0 0 2.86-.74l-.94-2.54a27.47 27.47 0 0 1-7.7 1.11v2.71a32 32 0 0 0 3.21-.18v3h-3.49v2.71h3a19.31 19.31 0 0 1-3.94 7.33l1.79 1.66a17.77 17.77 0 0 0 2.61-3.82v9.43h2.6V26.73a20 20 0 0 0 1.12 1.74z"/><path class="cls-6" d="M123.42 16.48h4.96v2.57h-4.96zm0 5.2h4.96v2.57h-4.96zm-82.09-3.93A23.67 23.67 0 0 1 48 21.17l1.74-2.38a26.13 26.13 0 0 0-7.47-3.85zm11.06 10.84C49.87 31 46.55 32.31 42 32.67l.62 2.92c5-.46 8.94-2.05 11.87-4.87 2.66-2.56 4.61-6.08 6.28-11.4L58 18c-1.52 5.06-3.26 8.33-5.61 10.59zM37.05 17.68l.23-1.68H18v3h15.66A18 18 0 0 1 27 27.72 44.43 44.43 0 0 0 23.49 24l-2 2.16A46.6 46.6 0 0 1 29.3 36l2.41-1.74A46.55 46.55 0 0 0 28.83 30C36 24.77 37 18 37.05 17.68zm36.5-3.23h-3c0 1.4 0 2.69-.08 3.89h-5.58v3h5.39c-.65 5.78-2.43 9-6.32 12.55l2.1 2.09c4.78-4.4 6.6-8.6 7.21-14.64h5.84v10.12a1.48 1.48 0 0 1-1.48 1.48h-3.88v3h3.88a4.44 4.44 0 0 0 4.43-4.44V18.34h-8.58c.05-1.22.07-2.51.07-3.89z"/><path class="cls-6" d="M79.18 14.45h1.48v2.96h-1.48zm2.14 0h1.48v2.96h-1.48z"/></g></g></svg>