<svg viewBox="0 0 360 54" width="360" height="54" preserveAspectRatio="none" xmlns="http://www.w3.org/2000/svg"><clipPath id="a"><path d="M0 0h360v54H0z"/></clipPath><g clip-path="url(#a)"><path d="M-8.5-8.5h377.01v71.01H-8.5z" fill="#fff"/><path d="M335.25 16.9l7.85 7.85-7.85 7.86" fill="none" stroke="#999" stroke-miterlimit="10" stroke-width="3"/><path d="M370.01 57h-380l-.02-6.99h380z" fill="#66c6dd"/><path d="M33.05 20.53h3.08v1.22h-3.08zm0-3.5h3.08v1.22h-3.08z" fill="none"/><g fill="#231815"><path d="M19.84 36.55a15.18 15.18 0 0 0 2.35-2.62 10.27 10.27 0 0 0 6.52 2.4h11v-2.55h-6.66v-2.5h6.67v-2.41h-6.67v-1.21h5.76v-2.29h-5.76v-1.22h5.53v-3.62h1.13v-2.28h-1.12v-3.63h-5.54V13h-2.7v1.59H26V17h4.33v1.22h-5.77v2.28h5.79v1.22H26v2.4h4.33v1.22h-5.04v2.29h5.06v1.21h-5.79v2.41h5.79v2.5h-1.64a7.73 7.73 0 0 1-5.3-2.23c.1-.27.2-.55.3-.85a34 34 0 0 0 .86-7.64l.07-1.34h-2.75l2.68-8h-6.19v2.56H21l-2.67 8H22c-.08 1.48-.19 3-.37 4.14a12.79 12.79 0 0 1-.71-2.8l-2.57.41a15.41 15.41 0 0 0 1.45 4.76 8.87 8.87 0 0 0 .64 1.18 11.24 11.24 0 0 1-2.36 2.79l-.08.08 1.76 1.85zM33.05 17h3.08v1.22h-3.08zm0 3.5h3.08v1.22h-3.08zM64.69 36l.92-2.41a14.51 14.51 0 0 1-7.08-4.36h7.08v-2.31h-9.07v-1.05h-2.7v1.05h-9v2.33h7a14.54 14.54 0 0 1-7.09 4.36L45.7 36a17.24 17.24 0 0 0 8.14-5.13v5.93h2.7v-5.91A17.27 17.27 0 0 0 64.69 36zM48.42 17.2v1.62h-3.58v2.34h3.58v1.77h-3.58v2.45h10.72l.31-.21a5.2 5.2 0 0 0 2.18-4h3.81v4.22h3.73v-2.46h-1.27v-4.11h-2.46V17.2h3.73v-2.45h-7.22V13h-2.7v4.2h3.49v1.62h-3.48v1.25a4 4 0 0 1-.92 2.86h-3.64v-1.77h3.59v-2.34h-3.59V17.2h3.59v-2.45h-7.18V13h-2.7v4.2z"/><path d="M59.24 25.3l2.21-.74a14.36 14.36 0 0 0-1.34-3l-2 1.18a13.25 13.25 0 0 1 1.13 2.56zm32.3-2.02h18.31v2.94H91.54zm-20.96-5.17H83.8v13.47H70.49v2.94h16.26V15.16H70.58zm53.25 7.35a23 23 0 0 0 3.58-8.66l.28-1.7h-14.34v3h10.76c-1.89 6.54-8.35 13.27-12.35 14.94v.1l1.59 2.4a26.94 26.94 0 0 0 8.14-6.9l.57-.71a73.38 73.38 0 0 1 6.73 7.64l2-2.22a74.33 74.33 0 0 0-6.96-7.89z"/></g></g></svg>