<svg width="364" height="54" id="レイヤー_1" data-name="レイヤー 1" xmlns="http://www.w3.org/2000/svg" viewBox="0 0 360 54" preserveAspectRatio="none"><defs><style>.cls-1,.cls-4{fill:none}.cls-2{clip-path:url(#clip-path)}.cls-3{fill:#fff}.cls-4{stroke:#999;stroke-miterlimit:10;stroke-width:3px}.cls-5{fill:#ffcc2d}.cls-6{fill:#231815}</style><clipPath id="clip-path"><path class="cls-1" d="M0 0h360v54H0z"/></clipPath></defs><title>img_banner_deptname_game</title><g class="cls-2"><path class="cls-3" d="M-8.5-8.5h377.01v71.01H-8.5z"/><path class="cls-4" d="M335.25 16.9l7.85 7.85-7.85 7.86"/><g id="芸術学部"><path class="cls-5" d="M370.01 57h-380l-.02-6.99h380l.02 6.99z"/><path class="cls-6" d="M37.02 13.94h1.48v3.02h-1.48zm-2.19 0h1.48v3.02h-1.48zm24.15 21.71l8.98-20.52 2.71 1.18-7.16 16.39h11.71l-3.25-6.69h.01l2.66-1.29 5.3 10.93H58.98zM103.25 27h-8.82v-.36l4.94-3.24v-3H86.25v2.46h9l-3.75 2.47V27h-9.14v2.46h9.16v4.64H89V37h3.8a1.74 1.74 0 0 0 .55-.09 1.55 1.55 0 0 0 1-1.13 2.31 2.31 0 0 0 .07-.5v-5.84h8.82z"/><path class="cls-6" d="M85.45 18.62h14.71V22h2.86v-6.04h-2.83v-2.87h-2.86V16h-3.1v-2.91h-2.86V16h-3.04v-2.91h-2.86v2.87H82.6V22h2.85v-3.38zm43.59 9.09h-1.45V13.09h-2.71v14.62h-7.81v2.71h7.81v6.56h2.71v-6.56h1.45v-2.71zm-11.8-.58a18.79 18.79 0 0 1-2.45-4.74h2v-2.71h-2.64v-3.37a18.88 18.88 0 0 0 2.86-.74l-1-2.54a27.45 27.45 0 0 1-7.7 1.1v2.72c.83 0 2-.06 3.21-.18v3h-3.48v2.71h3a19.17 19.17 0 0 1-3.87 7.32l1.83 1.67a17.58 17.58 0 0 0 2.61-3.81V37h2.58V26.83a17.81 17.81 0 0 0 1.11 1.74z"/><path class="cls-6" d="M118.58 16.58h4.97v2.57h-4.97zm0 5.19h4.97v2.58h-4.97zm-78.04 4.78v-2.96h17.4v2.96h-17.4zm-15.48-8.24a29.64 29.64 0 0 0 1-4.72l-2.93-.41c-.37 2.72-1.28 7.58-5.15 11.26l2 2.15a18.36 18.36 0 0 0 3.85-5.33h7a12.92 12.92 0 0 1-2.73 7.68c-1.74 2.11-4.36 3.58-7.9 4.54l1 2.77a17.63 17.63 0 0 0 9.13-5.42 15.93 15.93 0 0 0 3.41-9.57h4.64v-3z"/></g></g></svg>