<svg width="364" height="54" id="レイヤー_1" data-name="レイヤー 1" xmlns="http://www.w3.org/2000/svg" viewBox="0 0 360 54" preserveAspectRatio="none"><defs><style>.cls-1,.cls-4{fill:none}.cls-2{clip-path:url(#clip-path)}.cls-3{fill:#fff}.cls-4{stroke:#999;stroke-miterlimit:10;stroke-width:3px}.cls-5{fill:#66c6dd}.cls-6{fill:#231815}</style><clipPath id="clip-path"><path class="cls-1" d="M0 0h360v54H0z"/></clipPath></defs><title>img_banner_deptname_itc</title><g class="cls-2"><path class="cls-3" d="M-8.5-8.5h377.01v71.01H-8.5z"/><path class="cls-4" d="M335.25 16.9l7.85 7.85-7.85 7.86"/><g id="工学部_コース"><path class="cls-5" d="M370.01 57h-380l-.02-6.99h380l.02 6.99z"/><path class="cls-1" d="M36.49 29.93h-7.44v1.15h7.44zm24.23-.8a17.94 17.94 0 0 0 1-3.71h-2a18.22 18.22 0 0 0 1 3.71zm-10.99-4.08c.26-1.07.47-2.22.62-3.09h-3a30 30 0 0 1 .48 3.09zm-13.24 1.67h-7.44v1.15h7.44z"/><path class="cls-6" d="M123 25.61a23.15 23.15 0 0 0 3.54-8.61l.28-1.71h-14.35v2.91h10.76c-1.89 6.55-8.34 13.27-12.34 15v.09l1.59 2.41a27.1 27.1 0 0 0 8.14-6.91l.56-.7a72.42 72.42 0 0 1 6.82 7.59l2-2.23a75.27 75.27 0 0 0-7-7.84zm-77.61-.56h-1.62v2.58h3.83v2.29h-3.5v2.58h3.5v4.32h2.58V32.5h3.35v-2.58h-3.35v-2.29h3.72v-2.58h-1.65c.25-1.13.46-2.28.59-3.09h1.31v-2.57h-4v-2.06h3.35v-2.58h-3.32V13H47.6v1.72h-3.5v2.58h3.5v2.06h-4V22h1.27a29.32 29.32 0 0 1 .52 3.05zm5-3.09c-.15.87-.36 2-.62 3.09h-1.91a30 30 0 0 0-.48-3.05zm6.72-5.25h4.54v2.38h-2.52v2.71h3.64a1.42 1.42 0 0 0 .48-.08 1.38 1.38 0 0 0 .9-1 2.06 2.06 0 0 0 .07-.47V14h-9.66v22.82h2.55z"/><path class="cls-6" d="M62.15 32a22.58 22.58 0 0 0 2.07-9h-7.1a21.33 21.33 0 0 0 2.27 9 16.61 16.61 0 0 1-2 2.86l1.71 1.94a17.49 17.49 0 0 0 1.7-2.3 18.67 18.67 0 0 0 1.77 2.32l1.65-1.94A18.64 18.64 0 0 1 62.15 32zm-1.43-2.89a18.22 18.22 0 0 1-1-3.71h2a17.94 17.94 0 0 1-1 3.73zM21.38 13.03h2.51v23.8h-2.51z"/><path class="cls-6" transform="rotate(-85.27 19.464 21.342)" d="M15.75 20.17h7.42v2.33h-7.42z"/><path class="cls-6" d="M26.6 36.82h2.45v-3.68h7.44v1.23h-2v2.45h3a1.52 1.52 0 0 0 .49-.08 1.38 1.38 0 0 0 .89-1 1.62 1.62 0 0 0 .07-.46V24.42H26.6zm2.45-10.1h7.44v1.15h-7.44zm0 3.21h7.44v1.15h-7.44zm10.67-8.85H34V20h4.59v-2.26H34v-1h5.21V14.4H34V13h-2.56v1.4h-5.22v2.3h5.22v1H27.3V20h4.14v1h-4.69v-3.26h-2.3v5.63h15.27zm50.95 2.35h18.31v2.95H90.67zm-4.8-8.12H69.71v3h13.22v13.42H69.62v2.95h16.25z"/></g></g></svg>