<svg width="364" height="54" id="レイヤー_1" data-name="レイヤー 1" xmlns="http://www.w3.org/2000/svg" viewBox="0 0 360 54" preserveAspectRatio="none"><defs><style>.cls-1,.cls-4{fill:none}.cls-2{clip-path:url(#clip-path)}.cls-3{fill:#fff}.cls-4{stroke:#999;stroke-miterlimit:10;stroke-width:3px}.cls-5{fill:#ffcc2d}.cls-6{fill:#231815}</style><clipPath id="clip-path"><path class="cls-1" d="M0 0h360v54H0z"/></clipPath></defs><title>img_banner_deptname_animation</title><g class="cls-2"><path class="cls-3" d="M-8.5-8.5h377.01v71.01H-8.5z"/><path class="cls-4" d="M335.25 16.9l7.85 7.85-7.85 7.86"/><g id="芸術学部"><path class="cls-5" d="M370.01 57h-380l-.02-6.99h380l.02 6.99z"/><path class="cls-6" d="M25.41 20.16v.16c-.15 8.8-3 10.9-6.43 12.58l1.76 2.4c4.6-2.37 7.46-5.82 7.61-14.94v-.2z"/><path class="cls-6" d="M18 14.53v2.94h15.6a9.09 9.09 0 0 1-4.6 6.06l1.79 2.39C34.3 24 36.7 19.82 37 15v-.42zm67.96 8.6h18.25v2.94H85.96zm106.95 3.75h-8.77v-.35l4.92-3.22v-3H176v2.45h9l-3.73 2.44v1.68h-9.1v2.45h9.1v4.6h-2.5v2.89h3.78a1.68 1.68 0 0 0 .54-.09 1.57 1.57 0 0 0 1-1.13 2.05 2.05 0 0 0 .06-.49v-5.78h8.77z"/><path class="cls-6" d="M175.23 18.58h14.61v3.36h2.84v-6h-2.81V13.1h-2.84v2.89h-3.07V13.1h-2.84v2.89h-3.03V13.1h-2.84v2.84h-2.86v6h2.84v-3.36zm43.3 9.03h-1.44V13.1h-2.7v14.51h-7.76v2.69h7.76v6.52h2.7V30.3h1.44v-2.69zM206.8 27a19.24 19.24 0 0 1-2.44-4.71h2v-2.65h-2.63v-3.35a17 17 0 0 0 2.84-.74l-.94-2.55a27.06 27.06 0 0 1-7.65 1.1v2.69a31.31 31.31 0 0 0 3.19-.18v3h-3.46v2.69h2.93a19.12 19.12 0 0 1-3.84 7.27l1.78 1.65a17.63 17.63 0 0 0 2.59-3.79v9.36h2.56V26.73a17.13 17.13 0 0 0 1.11 1.73z"/><path class="cls-6" d="M208.13 16.55h4.93v2.56h-4.93zm0 5.17h4.93v2.56h-4.93zM42.71 16.73h15.47v2.94H42.71zm-1.87 13.42h19.21v2.94H40.84zm91.61-10.72V22h9.79v3.37h-9.62V28h9.62v3.79h-10.06v2.57h12.63V19.43zm-55.31 5.16a47.49 47.49 0 0 0 4-9.76L78.31 14a46.13 46.13 0 0 1-3.43 8.66 58.45 58.45 0 0 0-6-4.39l-1.54 2.5a55.72 55.72 0 0 1 6 4.44A23.68 23.68 0 0 1 64 33.37l1.72 2.42a26.62 26.62 0 0 0 9.87-8.66 35.84 35.84 0 0 1 4.34 4.49l2.38-1.72a39.13 39.13 0 0 0-5.17-5.31zm30.8-1.69a26.58 26.58 0 0 1 6.36 2.83l1.5-2.53a29.73 29.73 0 0 0-6.94-3.09zm1.82-5.81a27.69 27.69 0 0 1 6.53 2.81l1.53-2.51a31.46 31.46 0 0 0-7.21-3.12zm-.15 16.04l.61 2.9c5-.46 8.86-2.13 11.82-5.1 2.57-2.59 4.55-6.27 6.22-11.55l-2.68-1.31c-3.16 10.3-7.49 14.39-15.97 15.06zm39.64-15.32a23.24 23.24 0 0 1 6.59 3.41l1.74-2.37a26.11 26.11 0 0 0-7.43-3.85zm10.98 10.78c-2.5 2.4-5.8 3.69-10.36 4.05l.61 2.9c5-.46 8.88-2 11.79-4.84 2.64-2.54 4.58-6 6.25-11.32l-2.67-1.31c-1.55 5.02-3.28 8.27-5.62 10.52z"/></g></g></svg>