<svg width="364" height="54" id="レイヤー_1" data-name="レイヤー 1" xmlns="http://www.w3.org/2000/svg" viewBox="0 0 360 54" preserveAspectRatio="none"><defs><style>.cls-1,.cls-4{fill:none}.cls-2{clip-path:url(#clip-path)}.cls-3{fill:#fff}.cls-4{stroke:#999;stroke-miterlimit:10;stroke-width:3px}.cls-5{fill:#ffcc2d}.cls-6{fill:#231815}</style><clipPath id="clip-path"><path class="cls-1" d="M0 0h360v54H0z"/></clipPath></defs><title>img_banner_deptname_photography</title><g class="cls-2"><path class="cls-3" d="M-8.5-8.5h377.01v71.01H-8.5z"/><path class="cls-4" d="M335.25 16.9l7.85 7.85-7.85 7.86"/><g id="芸術学部"><path class="cls-5" d="M370.01 57h-380l-.02-6.99h380l.02 6.99z"/><path class="cls-6" d="M89.8 26.94h-8.86v-.36l5-3.26v-3H72.73v2.48h9.06L78 25.24v1.7h-9.17v2.47H78v4.65h-2.5V37h3.82a1.5 1.5 0 0 0 .55-.1 1.54 1.54 0 0 0 1-1.13 2.23 2.23 0 0 0 .07-.5v-5.86h8.86z"/><path class="cls-6" d="M71.93 18.55H86.7v3.39h2.87v-6.06h-2.85v-2.87h-2.87v2.92h-3.1v-2.92h-2.87v2.92h-3.05v-2.92h-2.87v2.87h-2.9v6.06h2.87v-3.39zm43.76 9.12h-1.46V13.01h-2.72v14.66h-7.84v2.72h7.84v6.59h2.72v-6.59h1.46v-2.72zm-11.85-.57a19.6 19.6 0 0 1-2.52-4.76h2.07v-2.72h-2.66V16.3a17.36 17.36 0 0 0 2.87-.74l-.94-2.56a27.36 27.36 0 0 1-7.73 1.11v2.72a32 32 0 0 0 3.22-.18v3h-3.5v2.72h3a19.18 19.18 0 0 1-3.88 7.35l1.8 1.66a17.76 17.76 0 0 0 2.62-3.83V37h2.58V26.79a20.22 20.22 0 0 0 1.13 1.75z"/><path class="cls-6" d="M105.18 16.5h4.98v2.59h-4.98zm0 5.22h4.98v2.58h-4.98zM39 28.71h-4.27v-4.93H24.19c.15-.57.36-1.33.58-2.17h9.3v-2.72H25.5c.23-.85.43-1.63.58-2.17h9.45v3.47h2.72V14H18.39v6.19h2.72v-3.47h2.15l-2.61 9.79h11.63v2.2H18v2.45h14.28v3.12H25.9V37h7.47a1.31 1.31 0 0 0 .46-.08 1.29 1.29 0 0 0 .84-.95 2.16 2.16 0 0 0 .06-.44v-4.37H39zm4.45 4.03h4.87a12.43 12.43 0 0 1-4.23 1.55l.42 2.71A15.77 15.77 0 0 0 51 34.25l-1.07-1.51h8.13L57 34.25A15.88 15.88 0 0 0 63.48 37l.42-2.69a12.43 12.43 0 0 1-4.23-1.55h4.82v-2.47h-21zm11.9-18.24V13h-2.72v1.5h-9.18v2.62h9.18v1.29h-7v10.86h16.71V18.41h-7v-1.29h9.14V14.5zm-7 6.09h11.26v1.12H48.37zm0 2.76h11.26v1.12H48.37zm0 2.75h11.26v1.12H48.37z"/></g></g></svg>