<svg width="364" height="54" id="レイヤー_1" data-name="レイヤー 1" xmlns="http://www.w3.org/2000/svg" viewBox="0 0 360 54" preserveAspectRatio="none"><defs><style>.cls-1,.cls-4{fill:none}.cls-2{clip-path:url(#clip-path)}.cls-3{fill:#fff}.cls-4{stroke:#999;stroke-miterlimit:10;stroke-width:3px}.cls-5{fill:#66c6dd}.cls-6{fill:#231815}</style><clipPath id="clip-path"><path class="cls-1" d="M0 0h360v54H0z"/></clipPath></defs><title>img_banner_deptname_cmc</title><g class="cls-2"><path class="cls-3" d="M-8.5-8.5h377.01v71.01H-8.5z"/><path class="cls-4" d="M335.25 16.9l7.85 7.85-7.85 7.86"/><g id="工学部_コース"><path class="cls-5" d="M370.01 57h-380l-.02-6.99h380l.02 6.99z"/><path class="cls-6" d="M85.51 25.15a19.24 19.24 0 0 1-2.44-4.71h2v-2.69h-2.63v-4.67h-2.56v4.67h-3.46v2.69h2.93a19.19 19.19 0 0 1-3.84 7.27l1.78 1.64a17.15 17.15 0 0 0 2.59-3.79V36.8h2.56v-12a19.72 19.72 0 0 0 1.11 1.73zm36.16 11.65v-6.53h1.44v-2.68h-1.44V13.08h-2.69v14.51h-7.76v2.68h7.76v6.53h2.69z"/><path class="cls-6" d="M112.72 16.53h4.93v2.56h-4.93zm0 5.16h4.93v2.56h-4.93zM40 19.66l-1.86-2.27a31.65 31.65 0 0 1-7 4.16v-8.39h-2.78v21.77a2.12 2.12 0 0 0 .06.49 1.51 1.51 0 0 0 .94 1.12 1.47 1.47 0 0 0 .5.1h8.6a1.52 1.52 0 0 0 .51-.1 1.51 1.51 0 0 0 .94-1.12 2.12 2.12 0 0 0 .06-.49v-5.54h-2.81v4.31h-6v-9A34.23 34.23 0 0 0 40 19.66zm-22 4.12l2.25 1.89c.44-.53.85-1.05 1.24-1.57v12.78h2.81V19.45a27.64 27.64 0 0 0 1.88-5.66l-2.87-.64A23.31 23.31 0 0 1 18 23.78zM53.37 34h-2.49v2.89h3.78a1.73 1.73 0 0 0 .54-.1 1.53 1.53 0 0 0 1-1.12 2.14 2.14 0 0 0 .07-.49v-5.79H65v-2.45h-8.74v-.35l4.91-3.22v-3h-13v2.45h9l-3.73 2.44v1.68h-9.16v2.45h9.09z"/><path class="cls-6" d="M47.35 18.65h14.6V22h2.84v-6h-2.81v-2.84h-2.84v2.89h-3.07v-2.89h-2.84v2.89h-3.02v-2.89h-2.84V16h-2.86v6h2.84v-3.35zm100.84 4.9h18.25v2.93h-18.25zm-4.78-8.09H127.3v2.93h13.17v13.43h-13.26v2.93h16.2zm-72.47 7.11a1.86 1.86 0 1 0 1.85 1.86 1.85 1.85 0 0 0-1.85-1.86zm37.53-.26h2.61v-2.69h-3.25v-6.54h-2.55v6.54h-3.46v2.69h2.93a19.19 19.19 0 0 1-3.84 7.27l1.77 1.64a17.51 17.51 0 0 0 2.6-3.79v9.37h2.55V26.71a18.33 18.33 0 0 0 1.11 1.73l2-1.42a19.24 19.24 0 0 1-2.47-4.71z"/><path class="cls-6" d="M108.98 13.08h2.1v5.14h-2.1zm-7.11 0h2.1v5.14h-2.1zM96.46 13h-2.54v4.72h-7v2.68h5.33c-1 4.25-3.59 8.27-7.84 12l1.66 1.92a27 27 0 0 0 7.84-10.65v10.54H91.8v2.53h3.39a1.27 1.27 0 0 0 1.27-1.27v-15h1.91v-2.72h-1.91zm71.88 20.23v.09l1.58 2.4a27.05 27.05 0 0 0 8.12-6.88l.56-.7a70.73 70.73 0 0 1 6.71 7.61l2-2.22a74.74 74.74 0 0 0-7-7.81 23 23 0 0 0 3.57-8.63l.27-1.7h-14.23v2.94h10.72c-1.88 6.53-8.31 13.23-12.3 14.9z"/></g></g></svg>