<svg width="364" height="54" id="レイヤー_1" data-name="レイヤー 1" xmlns="http://www.w3.org/2000/svg" viewBox="0 0 360 54" preserveAspectRatio="none"><defs><style>.cls-1,.cls-4{fill:none}.cls-2{clip-path:url(#clip-path)}.cls-3{fill:#fff}.cls-4{stroke:#999;stroke-miterlimit:10;stroke-width:3px}.cls-5{fill:#ffcc2d}.cls-6{fill:#231815}</style><clipPath id="clip-path"><path class="cls-1" d="M0 0h360v54H0z"/></clipPath></defs><title>img_banner_deptname_design</title><g class="cls-2"><path class="cls-3" d="M-8.5-8.5h377.01v71.01H-8.5z"/><path class="cls-4" d="M335.25 16.9l7.85 7.85-7.85 7.86"/><g id="芸術学部"><path class="cls-5" d="M370.01 57h-380l-.02-6.99h380l.02 6.99z"/><path class="cls-6" d="M153.98 27.7h-1.45V13.1h-2.71v14.6h-7.81v2.72h7.81v6.56h2.71v-6.56h1.45V27.7zm-11.8-.56a19 19 0 0 1-2.46-4.75h2v-2.71h-2.65v-3.37a17.23 17.23 0 0 0 2.86-.74L141 13a27.47 27.47 0 0 1-7.7 1.11v2.71c.83 0 2-.06 3.21-.18v3H133v2.71h3a19.16 19.16 0 0 1-3.86 7.32l1.79 1.66a17.77 17.77 0 0 0 2.61-3.82V37h2.57V26.83a20 20 0 0 0 1.12 1.74z"/><path class="cls-6" d="M143.51 16.58h4.97v2.58h-4.97zm0 5.19h4.97v2.58h-4.97zm-59.23-3.93a23.71 23.71 0 0 1 6.64 3.43l1.75-2.38A26.35 26.35 0 0 0 85.19 15zm11.06 10.85c-2.52 2.43-5.84 3.72-10.44 4.09l.61 2.91c5.06-.46 8.95-2 11.88-4.86 2.66-2.56 4.61-6.1 6.28-11.41L101 18.1c-1.57 5.06-3.31 8.33-5.66 10.59zM128.19 27h-8.83v-.36l5-3.24v-3h-13.19v2.46h9l-3.76 2.46V27h-9.16v2.46h9.16v4.63h-2.51V37h3.81a1.68 1.68 0 0 0 .54-.09 1.55 1.55 0 0 0 1-1.13 2.23 2.23 0 0 0 .07-.5v-5.84h8.83z"/><path class="cls-6" d="M110.39 18.62h14.71V22h2.86v-6.04h-2.84V13.1h-2.86V16h-3.09v-2.9h-2.86V16h-3.04v-2.9h-2.86v2.86h-2.88V22h2.86v-3.38zm-90.63-4.08h13.26v2.96H19.76zM18 24.18h8.72c-.39 5.15-2.43 7.56-7.17 8.53l1.34 2.73c5.64-1.39 8.37-4.9 8.79-11.26h7v-3H18zm15.83-9.64h1.48v2.96h-1.48zm2.15 0h1.48v2.96h-1.48zm44.59 1.06l-2.38-1.76c-4.59 6.16-10 10.35-16.07 12.53L63.53 29a33.67 33.67 0 0 0 8.15-4.46V36h3V22.13a44.67 44.67 0 0 0 5.89-6.53zm-23.28-1.06h1.48v2.96h-1.48zm2.14 0h1.48v2.96h-1.48z"/><path class="cls-6" d="M56.52 14.48h-3v4.81h-6.14v-4.81h-3v4.81h-3.15v3h3.19v6.18h3v-6.22h6.18v1.27c0 2.2-.2 5.32-2 6.91-1.61 1.45-3.76 2-6.2 2.49l1.16 2.75a14.64 14.64 0 0 0 7-3.07c2.63-2.39 2.94-6.34 2.94-9.11v-1.24h3.65v-3h-3.63z"/></g></g></svg>