<svg width="364" height="54" id="レイヤー_1" data-name="レイヤー 1" xmlns="http://www.w3.org/2000/svg" viewBox="0 0 360 54" preserveAspectRatio="none"><defs><style>.cls-1,.cls-4{fill:none}.cls-2{clip-path:url(#clip-path)}.cls-3{fill:#fff}.cls-4{stroke:#999;stroke-miterlimit:10;stroke-width:3px}.cls-5{fill:#ffcc2d}.cls-6{fill:#231815}</style><clipPath id="clip-path"><path class="cls-1" d="M0 0h360v54H0z"/></clipPath></defs><title>img_banner_deptname_imaging</title><g class="cls-2"><path class="cls-3" d="M-8.5-8.5h377.01v71.01H-8.5z"/><path class="cls-4" d="M335.25 16.9l7.85 7.85-7.85 7.86"/><g id="芸術学部"><path class="cls-5" d="M370.01 57h-380l-.02-6.99h380l.02 6.99z"/><path class="cls-6" d="M90 26.92h-8.8v-.36l4.93-3.23v-3H73v2.46h9l-3.74 2.45v1.69h-9.11v2.45h9.12V34h-2.51v2.9h3.8a2 2 0 0 0 .54-.09 1.54 1.54 0 0 0 1-1.13 1.76 1.76 0 0 0 .07-.49v-5.8H90z"/><path class="cls-6" d="M72.23 18.59h14.64v3.37h2.85v-6.01H86.9V13.1h-2.85v2.89h-3.08V13.1h-2.84v2.89H75.1V13.1h-2.85v2.85h-2.87v6.01h2.85v-3.37zm43.41 9.05h-1.45V13.1h-2.7v14.54h-7.78v2.7h7.78v6.54h2.7v-6.54h1.45v-2.7zm-11.76-.56a19.76 19.76 0 0 1-2.45-4.73h2v-2.7h-2.63v-3.36a17.39 17.39 0 0 0 2.85-.73l-.94-2.56A27.24 27.24 0 0 1 95 14.13v2.7a31.63 31.63 0 0 0 3.2-.18v3h-3.43v2.7h2.94a19 19 0 0 1-3.86 7.29l1.79 1.65a17.84 17.84 0 0 0 2.6-3.8v9.39h2.56V26.77a19.72 19.72 0 0 0 1.11 1.73z"/><path class="cls-6" d="M105.21 16.56h4.94v2.56h-4.94zm0 5.18h4.94v2.57h-4.94zm-71.79 5.55h5.25v-2.7h-1.28v-8.68h-4.7V13.1h-2.58v2.81h-4.6v8.68h-1.28V14.08H18v18.69h6.23v-5.48h5.16a12.17 12.17 0 0 1-5.64 7.06l1.17 2.29a14.2 14.2 0 0 0 6.48-7.42 14.27 14.27 0 0 0 6.49 7.42l1.16-2.29a12.15 12.15 0 0 1-5.63-7.06zM21.9 16.53v5.6h-1.57v-5.6zm-1.57 8.18h1.57v5.6h-1.57zm14.36-6.1v6h-1.92a8 8 0 0 1-.08-1v-5zm-6.48 6v-6h1.9v5a7.8 7.8 0 0 1-.07 1zM49.44 13.5l-2.67-.41a21.83 21.83 0 0 1-4.44 10.69l-.19.25 2.15 1.63.18-.23c.22-.28.52-.67.86-1.16v12.61h2.57V19.37a28.07 28.07 0 0 0 1.54-5.87zm11.99 15.6a17.91 17.91 0 0 0 3.14-2.68l-1.75-1.55a15.59 15.59 0 0 1-3.91 3 11.68 11.68 0 0 0-1.37-2.61c.42-.3.82-.62 1.21-.94h5.71v-6.61h-4.2l1.09-1.85v-2.27h-8.43a6.35 6.35 0 0 1-3.24 3l.54 1.09v6.65H55A25.4 25.4 0 0 1 49.23 27l.67 2.1a28 28 0 0 0 5.69-2.49c.12.16.23.33.34.51a21.4 21.4 0 0 1-6.67 3.34l.62 2A23.45 23.45 0 0 0 56.83 29c.08.22.16.44.23.66a24 24 0 0 1-7.83 4.07l.67 2.11A26.91 26.91 0 0 0 57.62 32a10.31 10.31 0 0 1 .14 1.52 2.25 2.25 0 0 1-.12.85.57.57 0 0 1-.5.18h-2.57v2.33h2.57a2.86 2.86 0 0 0 2.4-1.16c.82-1.13.53-3.44.23-4.88a22.11 22.11 0 0 0 3.92 4.52l1.48-1.81a19.17 19.17 0 0 1-3.74-4.45zm.45-9v2H58.5v-2zm-5.71 2h-3.38v-2h3.38zm-3.57-4.39a8.44 8.44 0 0 0 1.83-1.85h4.08l-1.11 1.85z"/></g></g></svg>