<svg width="364" height="54" id="レイヤー_1" data-name="レイヤー 1" xmlns="http://www.w3.org/2000/svg" viewBox="0 0 360 54" preserveAspectRatio="none"><defs><style>.cls-1,.cls-4{fill:none}.cls-2{clip-path:url(#clip-path)}.cls-3{fill:#fff}.cls-4{stroke:#999;stroke-miterlimit:10;stroke-width:3px}.cls-5{fill:#66c6dd}.cls-6{fill:#231815}</style><clipPath id="clip-path"><path class="cls-1" d="M0 0h360v54H0z"/></clipPath></defs><title>img_banner_deptname_mc</title><g class="cls-2"><path class="cls-3" d="M-8.5-8.5h377.01v71.01H-8.5z"/><path class="cls-4" d="M335.25 16.9l7.85 7.85-7.85 7.86"/><g id="工学部_コース"><path class="cls-5" d="M370.01 57h-380l-.02-6.99h380l.02 6.99z"/><path class="cls-6" d="M91.18 23.39h18.25v2.94H91.18zm-4.78-8.15H70.29v2.93h13.18V31.6H70.2v2.94h16.2zm36.97 10.33a23 23 0 0 0 3.57-8.63l.27-1.7h-14.29v2.94h10.72c-1.88 6.52-8.31 13.23-12.3 14.9v.09l1.58 2.4a27.05 27.05 0 0 0 8.12-6.88c.19-.24.38-.47.56-.71a71.84 71.84 0 0 1 6.71 7.62l2-2.22a72.65 72.65 0 0 0-6.94-7.81zm-85.95 7.12a19.14 19.14 0 0 0 3.2-3.07l-1.75-1.41a17 17 0 0 1-2.61 2.52 12.6 12.6 0 0 1-1.1-3.34h6.13v-2.94h-2.22v1h-4.21a73.78 73.78 0 0 1-.36-8.28V13h-2.31v4.13a80.22 80.22 0 0 0 .34 8.28h-5.69A8.23 8.23 0 0 1 24 20.24h1.19v-2.39h-1.36V13h-2.44v4.82h-2.46v2.39h2.24a31.27 31.27 0 0 1-3.17 8.7l1.94 1c.55-1.05 1-2.07 1.45-3.07v9.88h2.44V25.46a8.85 8.85 0 0 0 1.67 1.72V31a10.85 10.85 0 0 1-1.06 4.72l2.18 1.09A13.36 13.36 0 0 0 27.93 31v-3.61h4.88a19.28 19.28 0 0 0 .51 2.17 15.78 15.78 0 0 0 1 2.52 19.25 19.25 0 0 1-3.17 1.6v-3.3H29v6.29l1.4-.36A18.76 18.76 0 0 0 35.52 34a9.87 9.87 0 0 0 2.39 2.56 1.17 1.17 0 0 0 .63.19h2.89v-2.3h-2.51a9.51 9.51 0 0 1-1.5-1.76z"/><path class="cls-6" d="M35.25 21.79v1.93h6.04v-2.9h-2.22v1.15h-1.44l3.46-4.92-1.68-1.18-1.31 1.87-.64-.57 1.96-2.81-1.68-1.17-2.99 4.29 2.16 1.95-1.66 2.36zm-9.36 0v1.93h5.95v-2.9h-2.22v1.15h-1.35l3.46-4.92-1.68-1.18-1.31 1.87-.64-.57 1.96-2.81-1.68-1.17-2.99 4.29 2.16 1.95-1.66 2.36zm40.45 12.6H64a19.42 19.42 0 0 1-1.2-3.6c.26-.38.52-.78.8-1.22a22.46 22.46 0 0 0 2.71-7.43l-2.4-.43a21.72 21.72 0 0 1-1.79 5.51 63.74 63.74 0 0 1-.49-8.16h4.56v-4.34h-2.43v2h-2.13V13h-2.44v3.64h-7.92v2.39h7.92a54.67 54.67 0 0 0 1 11.24 19.61 19.61 0 0 1-4.69 4.63l1.46 2a24 24 0 0 0 4-3.62 12 12 0 0 0 1.33 3.05 1.25 1.25 0 0 0 1 .52h3z"/><path class="cls-6" d="M50.07 35.17l2.12 1.19c1.29-2.29 1.55-4.9 1.55-8.12v-.81h1.31v5.44h2.44v-5.44h1.35v-2.2h-1.35v-5.07h-2.44v5.07h-1.31v-5.07h-2.43v4a10.48 10.48 0 0 1-2.32-4h1.14v-2.31h-1.36V13h-2.43v4.82h-2.47v2.39h2.24a32.72 32.72 0 0 1-3.34 8.67l1.94 1c.63-1.19 1.16-2.31 1.63-3.38v10.25h2.43v-12.2a19.67 19.67 0 0 0 2.33 2.59l.21.19v.91c0 3.4-.31 5.34-1.24 6.93z"/></g></g></svg>