<svg width="364" height="54" id="レイヤー_1" data-name="レイヤー 1" xmlns="http://www.w3.org/2000/svg" viewBox="0 0 360 54" preserveAspectRatio="none"><defs><style>.cls-1,.cls-4{fill:none}.cls-2{clip-path:url(#clip-path)}.cls-3{fill:#fff}.cls-4{stroke:#999;stroke-miterlimit:10;stroke-width:3px}.cls-5{fill:#66c6dd}.cls-6{fill:#231815}</style><clipPath id="clip-path"><path class="cls-1" d="M0 0h360v54H0z"/></clipPath></defs><title>img_banner_deptname_eec</title><g class="cls-2"><path class="cls-3" d="M-8.5-8.5h377.01v71.01H-8.5z"/><path class="cls-4" d="M335.25 16.9l7.85 7.85-7.85 7.86"/><g id="工学部_コース"><path class="cls-5" d="M370.01 57h-380l-.02-6.99h380l.02 6.99z"/><path class="cls-1" d="M79.88 25.83h5.39v1.48h-5.39zm0 3.12h5.39v1.47h-5.39zm-7.85 0h5.3v1.47h-5.3zm0-3.12h5.3v1.48h-5.3z"/><path class="cls-1" transform="rotate(-89.94 83.516 33.299)" d="M82.69 29.66h1.65v7.27h-1.65z"/><path class="cls-1" d="M21.64 28.95h5.3v1.47h-5.3zm0-3.12h5.3v1.48h-5.3z"/><path class="cls-1" transform="rotate(-89.94 33.12 33.295)" d="M32.29 29.66h1.65v7.27h-1.65z"/><path class="cls-1" d="M29.48 28.95h5.39v1.47h-5.39zm0-3.12h5.39v1.48h-5.39z"/><path class="cls-6" d="M115 25.67v-2.85h-8.93v-2.46L113.2 16v-3H95.8v2.85H108l-4.89 2.9v4h-9.2v2.85h9.2v8h-2.51v3h4.1a1.35 1.35 0 0 0 .46-.08 1.33 1.33 0 0 0 .86-1 2.18 2.18 0 0 0 .06-.45v-9.44zM88.5 36.53a1.2 1.2 0 0 0 .83-.87 1.67 1.67 0 0 0 .07-.47v-3.95h-1.65v-7.46h-7.87V19h6.17v3.5h2.86v-5.66h-9v-1.2H88V13H69.4v2.61h7.93v1.2h-8.94v5.69h2.86V19h6.08v4.75h-7.78v8.69h7.78v2.77a2.34 2.34 0 0 0 .06.38 1.27 1.27 0 0 0 .81.91 1.42 1.42 0 0 0 .43.07h9.47a1.31 1.31 0 0 0 .4-.04zm-11.17-6.11H72V29h5.3zm0-3.11H72v-1.48h5.3zm2.55-1.48h5.39v1.48h-5.39zm0 3.12h5.39v1.47h-5.39zm7.27 5.18h-7.27v-1.66h7.27z"/><path class="cls-6" d="M72.19 20.31h4.18v2.19h-4.18zm8.69 0h4.18v2.19h-4.18zM38.1 36.53a1.21 1.21 0 0 0 .84-.87 1.67 1.67 0 0 0 .07-.47v-3.95h-1.65v-7.46h-7.88V19h6.18v3.5h2.85v-5.66h-9v-1.2h8.13V13H19v2.61h7.93v1.2H18v5.69h2.85V19h6.09v4.75h-7.79v8.69h7.79v2.77a1.59 1.59 0 0 0 .06.38 1.23 1.23 0 0 0 .81.91 1.38 1.38 0 0 0 .43.07h9.46a1.24 1.24 0 0 0 .4-.04zm-11.16-6.11h-5.3V29h5.3zm0-3.11h-5.3v-1.48h5.3zm2.54-1.48h5.39v1.48h-5.39zm0 3.12h5.39v1.47h-5.39zm7.27 5.18h-7.27v-1.66h7.27z"/><path class="cls-6" d="M21.8 20.31h4.18v2.19H21.8zm8.69 0h4.18v2.19h-4.18zm110.85 3.01h18.52v2.98h-18.52zm-4.85-8.24h-16.35v3h13.37v13.6h-13.46v3h16.44zM60 35.2a1.43 1.43 0 0 0 1.44 1.43h3.26v-2.87h-1.85V22H43.54v2.38H60zM47.79 18.24h15.06v2.38H47.79z"/><path class="cls-6" d="M46.51 16.82h16.34v-2.38H46.51v-1.41h-2.97v7.58h2.97v-3.79zm9.32 18.94L57.76 34a40.59 40.59 0 0 0-3.92-3.66 18.31 18.31 0 0 0 2.77-4.07l-2.35-1.16a16.11 16.11 0 0 1-2.48 3.61 30.52 30.52 0 0 0-4-2.61l-1.21 2.33a27.25 27.25 0 0 1 3.32 2.12A21.24 21.24 0 0 1 43.77 34l.92 2.46A23.46 23.46 0 0 0 52 32.18a38.19 38.19 0 0 1 3.83 3.58zM174 25.53a23.22 23.22 0 0 0 3.62-8.76l.28-1.73h-14.5v3h10.89c-1.91 6.62-8.44 13.43-12.49 15.12v.1l1.61 2.43a27.16 27.16 0 0 0 8.23-7c.2-.23.39-.47.58-.71a74.08 74.08 0 0 1 6.81 7.73l2-2.25a74.92 74.92 0 0 0-7.03-7.93z"/></g></g></svg>