<svg width="364" height="54" id="レイヤー_1" data-name="レイヤー 1" xmlns="http://www.w3.org/2000/svg" viewBox="0 0 360 54" preserveAspectRatio="none"><defs><style>.cls-1,.cls-4{fill:none}.cls-2{clip-path:url(#clip-path)}.cls-3{fill:#fff}.cls-4{stroke:#999;stroke-miterlimit:10;stroke-width:3px}.cls-5{fill:#ffcc2d}.cls-6{fill:#231815}</style><clipPath id="clip-path"><path class="cls-1" d="M0 0h360v54H0z"/></clipPath></defs><title>img_banner_deptname_im</title><g class="cls-2"><path class="cls-3" d="M-8.5-8.5h377.01v71.01H-8.5z"/><path class="cls-4" d="M335.25 16.9l7.85 7.85-7.85 7.86"/><g id="芸術学部"><path class="cls-5" d="M370.01 57h-380l-.02-6.99h380l.02 6.99z"/><path d="M48.39 18.78A26.27 26.27 0 0 0 41 14.94l-.91 2.8a23.41 23.41 0 0 1 6.6 3.41zm2.66 9.75c-2.42 2.32-5.58 3.68-10.38 4.07l.6 2.89c5.06-.45 8.93-2 11.82-4.84S57.84 24 59.34 19.3L56.67 18c-1.45 4.73-3.19 8.2-5.62 10.53zM34 13.69c-6.45 8.66-13 11.46-16 12.54l1.39 2.62a33.13 33.13 0 0 0 8.1-4.44v11.4h3V22a44.43 44.43 0 0 0 5.9-6.53zm208.84 4.53c-4.87 6.53-9.81 8.63-12 9.43l.11.29 1.25 2.35a25.23 25.23 0 0 0 5.66-3v8h3V24.9a34.93 34.93 0 0 0 4.34-4.9z"/><path class="cls-6" d="M255.58 20.24c-.07 4.54-.89 7.25-2 9a9.91 9.91 0 0 1-4.43 3.59l1.76 2.4a12.47 12.47 0 0 0 5.16-4.42c1.51-2.37 2.38-5.67 2.46-10.55v-.2h-2.94z"/><path class="cls-6" d="M248.16 14.43v2.94h15.62a9.13 9.13 0 0 1-4.58 6.07l1.8 2.37c3.45-1.88 5.89-6 6.19-11v-.42z"/><path class="cls-3" d="M250.43 35.47zm9.95-9.33z"/><path class="cls-6" d="M211.79 14.43H225v2.94h-13.21zm14.01-.01h1.47v2.95h-1.47zM210 24h8.67a10.1 10.1 0 0 1-1.67 5.64c-1.06 1.36-2.67 2.31-5.36 2.87l1.34 2.71a11.07 11.07 0 0 0 6.34-3.77 13.15 13.15 0 0 0 2.34-7.45h7v-2.93H210zm17.94-9.58h1.47v2.95h-1.47zm-21.83 15.4a40.54 40.54 0 0 0-5.11-5.31 47.66 47.66 0 0 0 4-9.79l-2.82-.84a46.56 46.56 0 0 1-3.45 8.67 59.79 59.79 0 0 0-6-4.39l-1.54 2.5a55.08 55.08 0 0 1 6 4.44 23.74 23.74 0 0 1-9.37 8.2l1.72 2.41a26.54 26.54 0 0 0 9.83-8.71 34 34 0 0 1 4.36 4.51l2.38-1.73z"/><path d="M160.65 18.21c-4.87 6.54-9.8 8.64-12 9.44l.1.29 1.25 2.35a25.24 25.24 0 0 0 5.66-3v8h2.94V24.9A33.74 33.74 0 0 0 163 20zm-31.04-3.76h15.41v2.94h-15.41zm-1.75 6.65V24h8.67a10.25 10.25 0 0 1-1.77 5.63c-1.06 1.35-2.66 2.3-5.34 2.86l1.33 2.71a11 11 0 0 0 6.34-3.77 13.23 13.23 0 0 0 2.39-7.43h7v-2.9z"/><path class="cls-6" d="M291.87 26.82h-8.78v-.35l4.91-3.23v-3h-13.06v2.45h9l-3.73 2.45v1.68h-9.12v2.45h9.12v4.62h-2.5v2.89h3.79a1.4 1.4 0 0 0 .53-.1 1.52 1.52 0 0 0 1-1.12 3.11 3.11 0 0 0 .08-.49v-5.8h8.78z"/><path class="cls-6" d="M274.15 18.5h14.64v3.37h2.84v-6.01h-2.82v-2.85h-2.85v2.89h-3.07v-2.89h-2.84v2.89h-3.03v-2.89h-2.85v2.85h-2.86v6.01h2.84V18.5zm43.37 9.05h-1.44V13.01h-2.7v14.54h-7.77v2.7h7.77v6.53h2.7v-6.53h1.44v-2.7zM305.78 27a18.8 18.8 0 0 1-2.44-4.72h2v-2.7h-2.64v-3.37a17 17 0 0 0 2.84-.74l-.93-2.53A27.28 27.28 0 0 1 297 14v2.71c.83 0 2-.06 3.19-.18v3h-3.47v2.7h2.94a19 19 0 0 1-3.85 7.28l1.78 1.65a17.51 17.51 0 0 0 2.6-3.79v9.38h2.56V26.67a18.51 18.51 0 0 0 1.11 1.74z"/><path class="cls-6" d="M307.11 16.47h4.94v2.56h-4.94zm0 5.18h4.94v2.56h-4.94z"/><path d="M166.46 18.76h14.13a17 17 0 0 1-2.18 7.49c-1.7 2.83-4.51 5.32-9.54 6.55l1.29 2.7a17.15 17.15 0 0 0 10.78-7.75 20.58 20.58 0 0 0 2.64-10.46v-1.47h-17.12zm17.82-4.48h1.47v2.95h-1.47zm2.14 0h1.47v2.95h-1.47zm-100.5.7h15.38v2.94H85.92zm-1.61 5.86v2.95h15A10.86 10.86 0 0 1 97 29.33c-1.6 1.91-4.45 3.47-10 3.79l.85 2.88c5.61-.43 9.24-2.19 11.42-4.76s2.85-5.93 3.14-8.78l.16-1.62zm-4.22-4.91v-1.47H67.3l-.23 1.19c-.66 3.39-2.45 6.13-5.3 7.33l1.15 2.71a12.07 12.07 0 0 0 6.76-8.29h7.48a17.77 17.77 0 0 1-1.29 7.06 34.69 34.69 0 0 0-6-3.73l-1.35 2.62A30.9 30.9 0 0 1 74.34 27c-1.81 2.34-4.79 4.42-10.07 5.45l.91 2.82C72 33.9 75.89 30.6 77.89 27a19.64 19.64 0 0 0 2.21-9.73c0-.55-.01-1.01-.01-1.34zm43.69 0v-1.47H111l-.23 1.19a9.83 9.83 0 0 1-4.54 7l1.7 2.42a12.46 12.46 0 0 0 5.46-7.62h7.47a16.51 16.51 0 0 1-1.86 8.1c-1.66 2.91-4.69 5.66-11.05 6.91l.91 2.82c6.79-1.38 10.71-4.68 12.71-8.29a19.65 19.65 0 0 0 2.21-9.74c.01-.54 0-.99 0-1.32z"/></g></g></svg>