<svg id="レイヤー_1" xmlns="http://www.w3.org/2000/svg" width="91.738" height="60" viewBox="0 0 91.738 60"><style>.st0{fill:none}.st1{fill:#66c6dd}.st2{fill:#ffcc2d}.st3{fill:#4caf4a}</style><path class="st0" d="M64.105 37.23c1.156.324 2.373.501 3.631.501 7.438 0 13.49-6.051 13.49-13.489 0-7.438-6.051-13.489-13.49-13.489-1.258 0-2.475.177-3.631.501 2.42 3.746 3.827 8.206 3.827 12.989s-1.407 9.24-3.827 12.987z"/><ellipse class="st0" cx="55.833" cy="24.241" rx="1.586" ry="6.339"/><path class="st0" d="M47.561 11.252a13.435 13.435 0 0 0-3.632-.501c-7.438 0-13.49 6.051-13.49 13.489 0 7.438 6.051 13.489 13.49 13.489 1.258 0 2.475-.177 3.632-.501-2.42-3.746-3.827-8.206-3.827-12.989s1.407-9.24 3.827-12.987z"/><path class="st1" d="M47.561 37.23a13.435 13.435 0 0 1-3.632.501c-7.438 0-13.49-6.051-13.49-13.489 0-7.438 6.051-13.489 13.49-13.489 1.258 0 2.475.177 3.632.501a24.193 24.193 0 0 1 8.272-7.848A23.856 23.856 0 0 0 43.93.241c-13.235 0-24.002 10.767-24.002 24.002S30.695 48.245 43.93 48.245c4.329 0 8.393-1.152 11.903-3.165a24.218 24.218 0 0 1-8.272-7.85zm8.272-19.328a13.406 13.406 0 0 1 1.586 6.339c0 2.29-.575 4.448-1.586 6.339a13.546 13.546 0 0 0 8.272 6.65c2.42-3.746 3.827-8.206 3.827-12.989s-1.407-9.242-3.827-12.989a13.546 13.546 0 0 0-8.272 6.65z"/><path class="st2" d="M55.833 17.902a13.546 13.546 0 0 0-8.272-6.65c-2.42 3.746-3.827 8.206-3.827 12.989s1.407 9.242 3.827 12.989a13.549 13.549 0 0 0 8.272-6.65 13.406 13.406 0 0 1-1.586-6.339c0-2.29.575-4.448 1.586-6.339zM67.736.239a23.856 23.856 0 0 0-11.903 3.165 24.193 24.193 0 0 1 8.272 7.848 13.433 13.433 0 0 1 3.631-.501c7.438 0 13.49 6.051 13.49 13.489 0 7.438-6.051 13.489-13.49 13.489-1.258 0-2.475-.177-3.631-.501a24.193 24.193 0 0 1-8.272 7.848 23.856 23.856 0 0 0 11.903 3.165c13.235 0 24.002-10.767 24.002-24.002 0-13.233-10.767-24-24.002-24z"/><path class="st3" d="M64.105 37.23a13.549 13.549 0 0 1-8.272-6.65 13.546 13.546 0 0 1-8.272 6.65 24.184 24.184 0 0 0 8.272 7.848 24.193 24.193 0 0 0 8.272-7.848zM47.561 11.252a13.549 13.549 0 0 1 8.272 6.65 13.546 13.546 0 0 1 8.272-6.65 24.193 24.193 0 0 0-8.272-7.848 24.193 24.193 0 0 0-8.272 7.848z"/><path d="M16.686 47.248H6.174V11.761H0V1.249h16.686zM1.895 51.821a1.326 1.326 0 0 1-.213.573 1.299 1.299 0 0 1-.397.371 1.64 1.64 0 0 1-.537.199 3.01 3.01 0 0 1-.635.049l-.097-.003v1.173h1.612v4.159H3.12V51.74H1.907l-.012.081zm6.904.539a1.952 1.952 0 0 0-.79-.577 2.686 2.686 0 0 0-1.882 0c-.298.116-.562.31-.785.578-.221.265-.398.62-.527 1.055-.127.431-.192.968-.192 1.598 0 .647.065 1.197.192 1.634.128.441.306.8.527 1.065.223.268.487.462.786.577.294.114.609.171.936.171.334 0 .652-.058.946-.171.298-.115.563-.309.79-.577.224-.265.403-.624.532-1.065.127-.437.191-.987.191-1.634 0-.629-.065-1.167-.192-1.598-.129-.436-.308-.791-.532-1.056zm-2.127.617a.701.701 0 0 1 .392-.103c.157 0 .291.035.397.104.11.072.202.166.273.282.073.119.13.256.167.408a4.59 4.59 0 0 1 .126.95 14.836 14.836 0 0 1-.013 1.056c-.012.252-.05.498-.112.731-.06.226-.158.422-.292.582-.126.15-.304.222-.545.222-.235 0-.409-.072-.531-.222a1.514 1.514 0 0 1-.288-.582 3.583 3.583 0 0 1-.112-.731 14.388 14.388 0 0 1-.013-1.057c.003-.152.013-.311.031-.472.018-.16.048-.32.089-.476.04-.153.097-.291.168-.411a.865.865 0 0 1 .263-.281zm8.136-.617a1.952 1.952 0 0 0-.79-.577 2.686 2.686 0 0 0-1.882 0c-.298.116-.562.31-.785.578-.221.265-.398.62-.526 1.055-.127.431-.192.968-.192 1.598 0 .647.065 1.197.192 1.634.128.441.305.8.526 1.065.223.268.487.462.786.577.294.114.609.171.937.171.334 0 .652-.058.946-.171.298-.115.563-.309.79-.577.225-.266.403-.624.532-1.065.127-.438.192-.988.192-1.634 0-.628-.065-1.166-.192-1.598-.131-.435-.31-.79-.534-1.056zm-2.684 2.653c0-.109.002-.242.005-.396.003-.152.014-.311.031-.472.018-.16.048-.32.089-.476.04-.152.097-.29.168-.41a.868.868 0 0 1 .264-.281.701.701 0 0 1 .392-.103c.157 0 .291.035.397.104.11.071.202.166.273.282.074.119.13.256.167.408a4.312 4.312 0 0 1 .125.95 14.424 14.424 0 0 1-.014 1.057 3.495 3.495 0 0 1-.111.731c-.06.226-.158.422-.292.582-.126.15-.304.222-.545.222-.235 0-.409-.072-.531-.222a1.514 1.514 0 0 1-.288-.582 3.45 3.45 0 0 1-.111-.731 13.359 13.359 0 0 1-.019-.663zm6.81-3.017h-1.491v1.42h-.788v1.061h.788v2.698c0 .253.044.463.131.623a.941.941 0 0 0 .361.376c.147.085.318.143.509.172.184.028.382.042.587.042.13 0 .262-.003.398-.009.137-.006.264-.019.378-.038l.08-.013v-1.205l-.114.023a2.193 2.193 0 0 1-.384.035c-.252 0-.342-.051-.372-.082-.03-.031-.082-.12-.082-.372v-2.25h.953v-1.061h-.953v-1.42zm6.608 1.865a1.378 1.378 0 0 0-.565-.424c-.234-.099-.535-.15-.894-.15-.257 0-.524.067-.793.198-.2.097-.375.239-.522.422v-2.296h-1.491v6.731h1.491v-2.578c0-.459.074-.79.219-.982.141-.187.368-.278.694-.278.279 0 .465.08.57.244.112.176.168.453.168.824v2.77h1.491v-3.008c0-.298-.027-.574-.08-.822a1.65 1.65 0 0 0-.288-.651zm7.497-2.249l-2.545 6.731h1.652l.513-1.456h2.31l.495 1.456h1.699l-2.517-6.731h-1.607zm1.49 4.012h-1.426l.725-2.042.701 2.042zm8.078-1.763a1.378 1.378 0 0 0-.565-.424c-.234-.099-.535-.15-.894-.15-.288 0-.572.066-.847.197-.205.098-.383.24-.532.423v-.492h-1.427v4.926h1.491v-2.578c0-.459.074-.79.219-.982.141-.187.368-.278.693-.278.279 0 .465.08.57.244.112.176.168.453.168.824v2.77h1.491v-3.008c0-.298-.027-.574-.08-.822a1.628 1.628 0 0 0-.287-.65zm6.345 0a1.378 1.378 0 0 0-.565-.424c-.234-.099-.535-.15-.894-.15-.288 0-.572.066-.847.197-.205.098-.383.24-.532.423v-.492h-1.427v4.926h1.491v-2.578c0-.459.074-.79.219-.982.141-.187.368-.278.693-.278.279 0 .465.08.57.244.112.176.168.453.168.824v2.77h1.491v-3.008c0-.298-.027-.574-.08-.822a1.628 1.628 0 0 0-.287-.65zm2.099-.445h1.491v4.926h-1.491zm0-1.804h1.491v1.262h-1.491zm5.078 4.84l-.937-3.036h-1.569l1.687 4.926h1.583l1.668-4.926h-1.495zm7.629-2.264a2.209 2.209 0 0 0-.77-.656 2.36 2.36 0 0 0-1.097-.245c-.372 0-.716.067-1.023.2a2.45 2.45 0 0 0-.796.548 2.426 2.426 0 0 0-.515.824c-.12.315-.18.659-.18 1.023a3 3 0 0 0 .175 1.041c.117.316.285.592.501.82.217.229.484.408.794.531.309.123.66.185 1.043.185.553 0 1.033-.128 1.425-.382.396-.255.692-.682.882-1.269l.04-.124H62.89l-.02.069c-.036.125-.141.248-.311.365-.172.12-.382.18-.624.18-.339 0-.6-.086-.776-.257-.161-.156-.257-.409-.286-.752h3.404l.006-.089a3.468 3.468 0 0 0-.094-1.083 2.658 2.658 0 0 0-.431-.929zm-1.904.27c.288 0 .503.076.639.225.125.137.219.336.278.592H60.88c.01-.058.024-.122.044-.19a.88.88 0 0 1 .157-.297.892.892 0 0 1 .298-.235c.124-.063.283-.095.475-.095zm6.695-1.17a1.64 1.64 0 0 0-.505.078 1.859 1.859 0 0 0-.454.217 1.692 1.692 0 0 0-.475.468v-.635h-1.427v4.926h1.491v-2.229c0-.206.021-.399.062-.574.039-.169.106-.319.199-.446a.966.966 0 0 1 .363-.296c.203-.098.477-.13.801-.096.082.009.153.019.211.031l.114.022v-1.396l-.068-.02a1.091 1.091 0 0 0-.312-.05zm5.277 2.431a1.939 1.939 0 0 0-.506-.256 5.432 5.432 0 0 0-.563-.158 22.585 22.585 0 0 0-.543-.12 4.221 4.221 0 0 1-.461-.121.877.877 0 0 1-.302-.16.26.26 0 0 1-.095-.212c0-.075.016-.132.051-.172a.375.375 0 0 1 .144-.107.715.715 0 0 1 .206-.052c.333-.036.581.001.788.109.141.073.217.214.233.43l.007.088h1.428l-.009-.103a1.652 1.652 0 0 0-.24-.772 1.592 1.592 0 0 0-.502-.492 2.092 2.092 0 0 0-.677-.259 4.1 4.1 0 0 0-1.534-.005 2.19 2.19 0 0 0-.69.249 1.409 1.409 0 0 0-.505.495c-.128.21-.193.479-.193.801 0 .224.048.418.142.575.092.155.216.285.367.388.147.099.317.18.505.241.181.058.37.11.564.154a7.69 7.69 0 0 1 1.072.289c.328.124.328.295.328.351a.383.383 0 0 1-.065.233.533.533 0 0 1-.175.155.894.894 0 0 1-.248.091 1.31 1.31 0 0 1-.616-.013.893.893 0 0 1-.285-.128.623.623 0 0 1-.27-.531v-.095h-1.431l.004.099c.012.333.09.615.229.839.138.222.318.403.534.539.213.134.46.231.732.288a4.146 4.146 0 0 0 1.637.004c.27-.054.514-.149.724-.283.213-.136.388-.317.521-.54.133-.224.201-.504.201-.832 0-.235-.047-.438-.141-.601a1.292 1.292 0 0 0-.366-.406zm6.467 2.077a4.81 4.81 0 0 1-.036-.602V54.73c0-.306-.071-.558-.211-.748a1.414 1.414 0 0 0-.53-.437 2.337 2.337 0 0 0-.697-.206 4.609 4.609 0 0 0-1.538.028 2.358 2.358 0 0 0-.73.272 1.663 1.663 0 0 0-.544.515c-.143.215-.225.486-.245.807l-.006.101h1.488l.008-.086c.021-.227.095-.39.219-.482.129-.097.313-.146.547-.146.11 0 .215.007.311.022a.625.625 0 0 1 .231.079.41.41 0 0 1 .149.157.607.607 0 0 1 .057.292c.005.104-.023.179-.085.229a.789.789 0 0 1-.311.141 3.41 3.41 0 0 1-.49.08 9.684 9.684 0 0 0-.583.074c-.196.03-.395.073-.592.126a1.745 1.745 0 0 0-.542.248 1.299 1.299 0 0 0-.396.449c-.102.187-.154.426-.154.71 0 .257.045.483.133.672.089.19.213.35.371.474.156.124.339.215.546.274.203.057.424.086.658.086.301 0 .6-.045.889-.132.234-.071.447-.187.633-.343l.01.055c.016.079.037.158.063.236l.022.065h1.56l-.091-.146c-.053-.085-.091-.22-.114-.4zm-1.527-1.693v.313c0 .069-.007.164-.022.281a.897.897 0 0 1-.112.327.764.764 0 0 1-.278.272c-.125.076-.309.114-.546.114-.098 0-.194-.009-.285-.026a.648.648 0 0 1-.224-.083.39.39 0 0 1-.141-.152.538.538 0 0 1-.052-.249c0-.106.018-.192.053-.257a.484.484 0 0 1 .142-.165.795.795 0 0 1 .22-.11c.091-.029.184-.053.276-.07.102-.018.204-.033.306-.045a3.83 3.83 0 0 0 .305-.047 2.11 2.11 0 0 0 .358-.103zm5.902-2.815a1.64 1.64 0 0 0-.505.078 1.859 1.859 0 0 0-.454.217 1.692 1.692 0 0 0-.475.468v-.635h-1.427v4.926h1.491v-2.229c0-.206.021-.399.062-.574.039-.169.106-.319.199-.446a.966.966 0 0 1 .363-.296c.203-.098.477-.13.801-.096.082.009.153.019.211.031l.114.022v-1.396l-.068-.02a1.091 1.091 0 0 0-.312-.05zm4.612.128l-.976 3.058-1.011-3.058h-1.589l1.707 4.573c.032.08.048.166.048.258a.552.552 0 0 1-.106.329c-.066.094-.168.147-.307.162a2.704 2.704 0 0 1-.371-.009l-.48-.047v1.264l.087.008c.135.012.268.023.4.032.133.009.268.014.404.014.463 0 .832-.089 1.096-.263.267-.175.476-.468.623-.871l2.026-5.45H89.28z"/></svg>