<svg id="レイヤー_1" xmlns="http://www.w3.org/2000/svg" width="178.264" height="60" viewBox="0 0 178.264 60"><style>.st0{fill:#ffcc2d}.st1{fill:#66c6dd}.st2{fill:#4caf4a}</style><path d="M126.543 16.077c0 12.104-7.418 20.586-18.063 20.586s-18.31-8.13-18.31-18.332C90.17 8.131 97.835 0 108.48 0c6.239 0 12.69 3.175 15.829 9.069l-8.415 3.535c-1.711-2.775-4.263-4.719-7.613-4.719-5.909 0-9.368 5.225-9.368 10.448 0 5.225 3.458 10.447 9.368 10.447 3.947 0 7.123-2.754 7.948-5.902h-5.847v-6.8h16.161zM18.661 14.693L30.804 1.239h-11.06L8.906 13.876V1.239H0v34.185h8.906v-9.922l3.551-3.934 8.868 13.856h11.06zM133.225 1.239h27.24v7.134h-18.339v5.985h16.761v6.895h-16.761v6.512h18.817v7.66h-27.718V1.239zm36.133 0h8.906v34.185h-8.906V1.239z"/><path class="st0" d="M67.848 0c-3.344 0-6.467.91-9.167 2.473 5.472 3.169 9.167 9.077 9.167 15.858 0 6.78-3.692 12.689-9.167 15.859a18.24 18.24 0 0 0 9.167 2.472c10.124 0 18.333-8.209 18.333-18.332C86.181 8.209 77.972 0 67.848 0z"/><path class="st1" d="M49.516 18.332c0-6.781 3.689-12.689 9.165-15.858A18.222 18.222 0 0 0 49.516.002c-10.125 0-18.334 8.208-18.334 18.331s8.209 18.332 18.334 18.332c3.344 0 6.467-.91 9.165-2.472-5.476-3.173-9.165-9.082-9.165-15.861z"/><path class="st2" d="M67.848 18.332c0-6.781-3.695-12.689-9.167-15.858-5.476 3.169-9.165 9.077-9.165 15.858 0 6.78 3.689 12.689 9.165 15.859 5.475-3.171 9.167-9.08 9.167-15.859z"/><path d="M38.447 56.21v-9.47h4.996v-1.656H31.781v1.656h4.862v9.47h-5.341v1.652h12.621V56.21zm9.393-7.692h10.755v1.503H47.84zm-1.002 4.383h3.381l-2.858 5.26h11.876l-2.48-4.392-1.46.778 1.108 1.962H50.14l1.96-3.608h7.481v-1.503H46.838v1.503zm9.696-7.741v-1.262H54.73v1.262h-3.052v-1.262h-1.804v1.262h-3.036v1.503h3.036v1.264h1.804v-1.264h3.052v1.264h1.804v-1.264h3.048V45.16zm-28.148-.076h-5.524v-1.186h-1.804v1.186h-5.416v1.656h12.744zM26.99 53v-5.246h-9.978V53h4.162v3.657H19.67v1.806h2.322a.948.948 0 0 0 .941-.749c.027-.095.044-.21.044-.302L22.978 53h4.012zm-8.25-3.743h6.52v2.24h-6.52v-2.24z"/><path d="M18.413 53.478c-.484.773-1.502 2.223-2.887 3.237l1.066 1.456c1.627-1.191 2.798-2.852 3.349-3.737l-1.528-.956zm7.035-.07l-1.496 1.006c1.034 1.539 1.902 2.571 3.521 3.625l.984-1.51c-1.225-.798-1.956-1.558-3.009-3.121zM7.253 46.74h5.49v-1.656h-5.49v-1.186H5.449v1.186H0v1.656h5.449v.949l-4.468-.002v5.824h3.272c-1.197 1.205-2.847 2.266-4.242 2.898l.825 1.571c.976-.48 3.067-1.67 4.613-3.399v3.881h1.804v-3.881c1.546 1.728 3.637 2.919 4.612 3.399l.825-1.571c-1.395-.632-3.044-1.693-4.243-2.898h3.273v-5.824l-4.467.002v-.949zm-1.804 2.333v.95h-2.74v-.95h2.74zm-2.74 2.101h2.74v.955h-2.74v-.955zm4.544.954v-.955h2.738v.955H7.253zm2.738-3.055v.95H7.253v-.95h2.738zm60.273-.061c-.108-.415-.184-1.019-.239-1.68h5.343v-1.727h-5.471v-1.706h-1.791v1.706h-5.482v1.727h5.351c-.055.662-.132 1.265-.238 1.68-.868 3.4-2.5 5.68-5.291 7.383l-.107.066.869 1.682.125-.075c2.708-1.652 4.563-3.994 5.669-7.138 1.107 3.144 2.963 5.486 5.667 7.138l.124.075.87-1.682-.106-.066c-2.792-1.703-4.424-3.983-5.293-7.383zm20.618 3.348h-5.384v-.214l3.016-1.981v-1.841h-8.009v1.501h5.509l-2.291 1.504v1.031h-5.585v1.504h5.585v2.826H82.19v1.773h2.323c.081 0 .216-.016.332-.056.293-.095.53-.36.61-.693.025-.095.042-.21.042-.302l.001-3.548h5.384V52.36z"/><path d="M80.025 47.264h8.971v2.06h1.743v-3.682h-1.728v-1.744h-1.744v1.773h-1.886v-1.773h-1.742v1.773h-1.857v-1.773h-1.744v1.744h-1.757v3.682h1.744zm16.2-1.817h3.561v.631h-1.419v3.534h-.73v-3.534h-1.412v-.631zm6.863.496c.892 0 1.264.788 1.264 1.586 0 .799-.373 1.587-1.264 1.587-.893 0-1.267-.787-1.267-1.587 0-.798.374-1.586 1.267-1.586zm0-.596c-1.249 0-1.996.993-1.996 2.182 0 1.191.746 2.182 1.996 2.182 1.247 0 1.994-.991 1.994-2.182-.001-1.189-.747-2.182-1.994-2.182zm3.854.1h.729v1.897l1.854-1.897h.899l-1.663 1.663 1.779 2.502h-.909l-1.366-1.989-.594.589v1.4h-.729v-4.165zm6.393 2.533l-1.564-2.533h.847l1.102 1.867 1.085-1.867h.815l-1.556 2.533v1.632h-.729V47.98zm5.309-2.037c.893 0 1.265.788 1.265 1.586 0 .799-.372 1.587-1.265 1.587-.893 0-1.266-.787-1.266-1.587 0-.798.373-1.586 1.266-1.586zm0-.596c-1.248 0-1.995.993-1.995 2.182 0 1.191.747 2.182 1.995 2.182s1.995-.991 1.995-2.182c0-1.189-.747-2.182-1.995-2.182zm8.068.695h1.079c.385 0 .718.141.718.69 0 .524-.403.687-.729.687h-1.067v-1.377zm-.73 3.57h.729v-1.598h1.109c1.19.006 1.417-.764 1.417-1.278 0-.519-.228-1.289-1.417-1.289h-1.838v4.165zm6.802-3.669c.892 0 1.266.788 1.266 1.586 0 .799-.373 1.587-1.266 1.587s-1.266-.787-1.266-1.587c0-.798.373-1.586 1.266-1.586zm0-.596c-1.249 0-1.995.993-1.995 2.182 0 1.191.746 2.182 1.995 2.182s1.995-.991 1.995-2.182c-.001-1.189-.746-2.182-1.995-2.182zm3.856.1h.728v3.535h2.117v.63h-2.846v-4.165zm4.98 2.533l-1.562-2.533h.846l1.102 1.867 1.085-1.867h.817l-1.558 2.533v1.632h-.729V47.98zm3.516-2.533h3.562v.631h-1.419v3.534h-.73v-3.534h-1.413v-.631zm5.263 0h2.999v.631h-2.27v1.09h2.1v.595h-2.1v1.22h2.31v.63h-3.039v-4.166zm7.8 1.324c-.123-.478-.433-.828-1.039-.828-.893 0-1.266.788-1.266 1.586 0 .799.373 1.587 1.266 1.587.647 0 1.003-.484 1.061-1.09h.712c-.059.998-.764 1.685-1.773 1.685-1.248 0-1.995-.991-1.995-2.182 0-1.19.747-2.182 1.995-2.182.938.007 1.68.526 1.768 1.424h-.729zm2.693-1.324h.731v1.656h1.894v-1.656h.73v4.165h-.73v-1.878h-1.894v1.878h-.731v-4.165zm5.397 0h.77l1.902 3.069h.011v-3.069h.694v4.165h-.77L167 46.549h-.017v3.063h-.695v-4.165zm5.552 0h.729v4.165h-.729v-4.165zm5.687 1.324c-.122-.478-.431-.828-1.037-.828-.893 0-1.266.788-1.266 1.586 0 .799.373 1.587 1.266 1.587.648 0 1.003-.484 1.062-1.09h.71c-.058.998-.764 1.685-1.773 1.685-1.249 0-1.995-.991-1.995-2.182 0-1.19.746-2.182 1.995-2.182.939.007 1.68.526 1.767 1.424h-.729zm-81.029 5.965h.728v2.427c0 .561.036 1.208.981 1.208s.98-.647.98-1.208v-2.427h.729v2.666c0 1.067-.681 1.599-1.709 1.599-1.026 0-1.709-.531-1.709-1.599v-2.666zm5.54 0h.772l1.9 3.069h.012v-3.069h.693V56.9h-.769l-1.896-3.061h-.017V56.9h-.695v-4.164zm5.729 0h.729V56.9h-.729v-4.164zm2.52 0h.759l1.044 3.296h.011l1.067-3.296h.741l-1.423 4.165h-.811l-1.388-4.165zm5.232 0h2.999v.631h-2.27v1.09h2.099v.594h-2.099v1.22h2.309v.63h-3.039v-4.165zm5.715.595h1.185c.38 0 .723.105.723.637 0 .436-.25.665-.711.665h-1.196v-1.302zm-.727 3.569h.728v-1.715h1.073c.672 0 .829.338.829 1.102 0 .205 0 .431.111.612h.782c-.157-.168-.228-.612-.228-1.096 0-.66-.367-.845-.618-.881v-.012c.134-.046.689-.251.689-1.05 0-.706-.468-1.126-1.377-1.126h-1.989V56.9zm5.897-1.387c0 .642.471.892 1.055.892.642 0 .882-.315.882-.629 0-.322-.176-.45-.345-.514-.293-.111-.67-.187-1.242-.344-.713-.193-.923-.625-.923-1.056 0-.834.771-1.225 1.523-1.225.869 0 1.597.461 1.597 1.331h-.729c-.035-.537-.397-.736-.897-.736-.34 0-.766.123-.766.542 0 .292.199.455.496.536.065.018.987.257 1.201.322.549.163.812.63.812 1.061 0 .933-.83 1.307-1.657 1.307-.95 0-1.721-.455-1.738-1.488h.731zm4.555-2.777h.729V56.9h-.729v-4.164zm2.384 0h3.561v.631h-1.42V56.9h-.729v-3.534h-1.413v-.63zm6.289 2.532l-1.563-2.533h.845l1.103 1.867 1.085-1.867h.817l-1.557 2.533V56.9h-.73v-1.632z"/></svg>